<mxfile host="app.diagrams.net" modified="2024-07-15T12:54:00.316Z" agent="Mozilla/5.0 (Windows NT 10.0; Win64; x64) AppleWebKit/537.36 (KHTML, like Gecko) Chrome/126.0.0.0 Safari/537.36" version="24.6.5" etag="X8osgbYg6IVvW0wuYYmz" type="github">
  <diagram name="Page-1" id="NJXZCBGVUGZkr9xaErKT">
    <mxGraphModel>
      <root>
        <mxCell id="0" />
        <mxCell id="1" parent="0" />
      </root>
    </mxGraphModel>
  </diagram>
</mxfile>
